<?xml version="1.0" encoding="utf-8"?>
<!-- Generator: Adobe Illustrator 23.0.1, SVG Export Plug-In . SVG Version: 6.00 Build 0)  -->
<svg version="1.1" id="Layer_1" xmlns="http://www.w3.org/2000/svg" xmlns:xlink="http://www.w3.org/1999/xlink" x="0px" y="0px"
	 viewBox="0 0 36.33 29.72" style="enable-background:new 0 0 36.33 29.72;" xml:space="preserve">
<style type="text/css">
	.st0{fill:#FFFFFF;}
</style>
<g>
	<rect x="7.54" y="0.46" class="st0" width="3.6" height="3.74"/>
	<rect x="25.35" y="0.46" class="st0" width="3.6" height="3.74"/>
	<path class="st0" d="M32.57,7.82v3.53h-3.62v-3.6h-3.6V4.21h-3.6v3.54h-3.51h-0.01h-3.51V4.21h-3.6v3.54h-3.6v3.6H3.92V7.82H0.37
		v10.74H3.9v0.01h3.64v7.25h3.6v3.65h3.6v-3.74h-3.57v-3.55h7.08h0.01h7.08v3.55h-3.57v3.74h3.6v-3.65h3.6v-7.25h3.64v-0.01h3.53
		V7.82H32.57z M14.7,14.92h-3.59v-3.42h3.59V14.92z M25.38,14.92h-3.59v-3.42h3.59V14.92z"/>
</g>
<g>
</g>
<g>
</g>
<g>
</g>
<g>
</g>
<g>
</g>
<g>
</g>
<g>
</g>
<g>
</g>
<g>
</g>
<g>
</g>
<g>
</g>
<g>
</g>
<g>
</g>
<g>
</g>
<g>
</g>
</svg>
