<?xml version="1.0" encoding="utf-8"?>
<!-- Generator: Adobe Illustrator 23.0.1, SVG Export Plug-In . SVG Version: 6.00 Build 0)  -->
<svg version="1.1" id="Layer_1" xmlns="http://www.w3.org/2000/svg" xmlns:xlink="http://www.w3.org/1999/xlink" x="0px" y="0px"
	 viewBox="0 0 36.33 29.72" style="enable-background:new 0 0 36.33 29.72;" xml:space="preserve">
<g>
	<rect x="7.54" y="0.46" width="3.6" height="3.74"/>
	<rect x="25.35" y="0.46" width="3.6" height="3.74"/>
	<path d="M36.14,11.4h-3.57l-3.62-0.05v-3.6h-3.6V4.21h-3.6v3.54h-3.51h-0.01h-3.51V4.21h-3.6v3.54h-3.6v3.6h-3.6v0H0.38v3.53
		l0.04,7.21h3.53v-3.52h3.59v7.25h3.6v3.65h3.6v-3.74h-3.57v-3.55h7.08h0.01h7.08v3.55h-3.57v3.74h3.6v-3.65h3.6v-7.25l3.6-0.01
		l0.02,3.6h3.53v-3.6l0.02,0V11.4z M14.7,14.92h-3.59V11.5h3.59V14.92z M25.38,14.92h-3.59V11.5h3.59V14.92z"/>
</g>
</svg>
